<mxfile host="app.diagrams.net" modified="2023-03-03T20:32:40.330Z" agent="5.0 (Windows NT 10.0; Win64; x64) AppleWebKit/537.36 (KHTML, like Gecko) Chrome/110.0.0.0 Safari/537.36" etag="lS2FV05IbiUZjClifcY3" version="21.0.2" type="github">
  <diagram name="Página-1" id="sTaQzrzicb5HoiLquos4">
    <mxGraphModel dx="1434" dy="788" grid="1" gridSize="10" guides="1" tooltips="1" connect="1" arrows="1" fold="1" page="1" pageScale="1" pageWidth="827" pageHeight="1169" math="0" shadow="0">
      <root>
        <mxCell id="0" />
        <mxCell id="1" parent="0" />
        <mxCell id="IWvimnZg6qs0Tck0v6mo-6" value="Pool" style="swimlane;html=1;childLayout=stackLayout;resizeParent=1;resizeParentMax=0;horizontal=0;startSize=20;horizontalStack=0;whiteSpace=wrap;" vertex="1" parent="1">
          <mxGeometry x="40" y="120" width="760" height="800" as="geometry" />
        </mxCell>
        <mxCell id="IWvimnZg6qs0Tck0v6mo-7" value="Paciente" style="swimlane;html=1;startSize=20;horizontal=0;" vertex="1" parent="IWvimnZg6qs0Tck0v6mo-6">
          <mxGeometry x="20" width="740" height="200" as="geometry" />
        </mxCell>
        <mxCell id="IWvimnZg6qs0Tck0v6mo-8" value="Segurança" style="swimlane;html=1;startSize=20;horizontal=0;" vertex="1" parent="IWvimnZg6qs0Tck0v6mo-6">
          <mxGeometry x="20" y="200" width="740" height="200" as="geometry" />
        </mxCell>
        <mxCell id="IWvimnZg6qs0Tck0v6mo-9" value="Recepcionista" style="swimlane;html=1;startSize=20;horizontal=0;" vertex="1" parent="IWvimnZg6qs0Tck0v6mo-6">
          <mxGeometry x="20" y="400" width="740" height="200" as="geometry" />
        </mxCell>
        <mxCell id="IWvimnZg6qs0Tck0v6mo-21" style="swimlane;html=1;startSize=20;horizontal=0;" vertex="1" parent="IWvimnZg6qs0Tck0v6mo-6">
          <mxGeometry x="20" y="600" width="740" height="200" as="geometry" />
        </mxCell>
      </root>
    </mxGraphModel>
  </diagram>
</mxfile>
